<svg xmlns="http://www.w3.org/2000/svg" fill="none" viewBox="0 0 32 32"><g clip-path="url(#a)"><path fill="#fff" d="M0 0h32v32H0z"/><path fill="#1D1D1D" fill-rule="evenodd" d="M15.905 20.394c-2.447 0-4.254-1.78-4.254-4.394s1.807-4.394 4.254-4.394c1.657 0 3.014.796 3.654 2.122l4.935-2.88C22.874 7.93 19.634 6 15.982 6 10.256 6 6 10.356 6 16s4.256 10 9.982 10c3.69 0 6.892-1.933 8.512-4.886l-4.935-2.842c-.602 1.326-1.997 2.122-3.654 2.122" clip-rule="evenodd"/><path fill="#BB8B62" fill-rule="evenodd" d="M23.087 18.337c1.299 0 2.386-1.094 2.386-2.4 0-1.307-1.087-2.4-2.386-2.4s-2.387 1.093-2.387 2.4 1.087 2.4 2.387 2.4" clip-rule="evenodd"/></g><defs><clipPath id="a"><rect width="32" height="32" fill="#fff" rx="16"/></clipPath></defs></svg>